<?xml version="1.0" encoding="UTF-8"?>
<svg xmlns="http://www.w3.org/2000/svg" xmlns:xlink="http://www.w3.org/1999/xlink" width="400" height="300" viewBox="0 0 400 300">
  <rect x="0" y="0" width="400" height="300" fill="rgb(229,229,178)" stroke="none"/>
  <path d="M10 150L50 10" fill="none" stroke="rgb(255,127,127)" stroke-width="1" stroke-linecap="butt" stroke-linejoin="miter" stroke-miterlimit="4"/>
  <path d="M50 10L90 150" fill="none" stroke="rgb(255,127,127)" stroke-width="1" stroke-linecap="butt" stroke-linejoin="miter" stroke-miterlimit="4"/>
  <path d="M10 150Q50 10 90 150" fill="none" stroke="rgb(0,0,0)" stroke-width="1" stroke-linecap="butt" stroke-linejoin="miter" stroke-miterlimit="4"/>
  <path d="M13 150C13 151.65685424949237 11.65685424949238 153 10 153C8.34314575050762 153 7 151.65685424949237 7 150C7 148.34314575050763 8.34314575050762 147 10 147C11.65685424949238 147 13 148.34314575050763 13 150Z" fill="none" stroke="rgb(51,51,255)" stroke-width="1" stroke-linecap="butt" stroke-linejoin="miter" stroke-miterlimit="4"/>
  <path d="M53 10C53 11.65685424949238 51.65685424949238 13 50 13C48.34314575050762 13 47 11.65685424949238 47 10C47 8.34314575050762 48.34314575050762 7 50 7C51.65685424949238 7 53 8.34314575050762 53 10Z" fill="none" stroke="rgb(51,51,255)" stroke-width="1" stroke-linecap="butt" stroke-linejoin="miter" stroke-miterlimit="4"/>
  <path d="M93 150C93 151.65685424949237 91.65685424949238 153 90 153C88.34314575050762 153 87 151.65685424949237 87 150C87 148.34314575050763 88.34314575050762 147 90 147C91.65685424949238 147 93 148.34314575050763 93 150Z" fill="none" stroke="rgb(51,51,255)" stroke-width="1" stroke-linecap="butt" stroke-linejoin="miter" stroke-miterlimit="4"/>
  <path d="M110 100L190 100" fill="none" stroke="rgb(255,127,127)" stroke-width="1" stroke-linecap="butt" stroke-linejoin="miter" stroke-miterlimit="4"/>
  <path d="M190 100L150 190" fill="none" stroke="rgb(255,127,127)" stroke-width="1" stroke-linecap="butt" stroke-linejoin="miter" stroke-miterlimit="4"/>
  <path d="M110 100Q190 100 150 190" fill="none" stroke="rgb(0,0,0)" stroke-width="1" stroke-linecap="butt" stroke-linejoin="miter" stroke-miterlimit="4"/>
  <path d="M113 100C113 101.65685424949238 111.65685424949238 103 110 103C108.34314575050762 103 107 101.65685424949238 107 100C107 98.34314575050762 108.34314575050762 97 110 97C111.65685424949238 97 113 98.34314575050762 113 100Z" fill="none" stroke="rgb(51,51,255)" stroke-width="1" stroke-linecap="butt" stroke-linejoin="miter" stroke-miterlimit="4"/>
  <path d="M193 100C193 101.65685424949238 191.65685424949237 103 190 103C188.34314575050763 103 187 101.65685424949238 187 100C187 98.34314575050762 188.34314575050763 97 190 97C191.65685424949237 97 193 98.34314575050762 193 100Z" fill="none" stroke="rgb(51,51,255)" stroke-width="1" stroke-linecap="butt" stroke-linejoin="miter" stroke-miterlimit="4"/>
  <path d="M153 190C153 191.65685424949237 151.65685424949237 193 150 193C148.34314575050763 193 147 191.65685424949237 147 190C147 188.34314575050763 148.34314575050763 187 150 187C151.65685424949237 187 153 188.34314575050763 153 190Z" fill="none" stroke="rgb(51,51,255)" stroke-width="1" stroke-linecap="butt" stroke-linejoin="miter" stroke-miterlimit="4"/>
  <path d="M250 150L210 60" fill="none" stroke="rgb(255,127,127)" stroke-width="1" stroke-linecap="butt" stroke-linejoin="miter" stroke-miterlimit="4"/>
  <path d="M210 60L290 150" fill="none" stroke="rgb(255,127,127)" stroke-width="1" stroke-linecap="butt" stroke-linejoin="miter" stroke-miterlimit="4"/>
  <path d="M250 150Q210 60 290 150" fill="none" stroke="rgb(0,0,0)" stroke-width="1" stroke-linecap="butt" stroke-linejoin="miter" stroke-miterlimit="4"/>
  <path d="M253 150C253 151.65685424949237 251.65685424949237 153 250 153C248.34314575050763 153 247 151.65685424949237 247 150C247 148.34314575050763 248.34314575050763 147 250 147C251.65685424949237 147 253 148.34314575050763 253 150Z" fill="none" stroke="rgb(51,51,255)" stroke-width="1" stroke-linecap="butt" stroke-linejoin="miter" stroke-miterlimit="4"/>
  <path d="M213 60C213 61.65685424949238 211.65685424949237 63 210 63C208.34314575050763 63 207 61.65685424949238 207 60C207 58.34314575050762 208.34314575050763 57 210 57C211.65685424949237 57 213 58.34314575050762 213 60Z" fill="none" stroke="rgb(51,51,255)" stroke-width="1" stroke-linecap="butt" stroke-linejoin="miter" stroke-miterlimit="4"/>
  <path d="M293 150C293 151.65685424949237 291.65685424949237 153 290 153C288.34314575050763 153 287 151.65685424949237 287 150C287 148.34314575050763 288.34314575050763 147 290 147C291.65685424949237 147 293 148.34314575050763 293 150Z" fill="none" stroke="rgb(51,51,255)" stroke-width="1" stroke-linecap="butt" stroke-linejoin="miter" stroke-miterlimit="4"/>
</svg>
